<svg width="101" height="48" viewBox="0 0 101 48" fill="none" xmlns="http://www.w3.org/2000/svg">
<g filter="url(#filter0_d_7_102)">
<path d="M27.064 37.88L12.136 12.728V36.776L6.76 38.648C5.48 39.096 4.84 38.728 4.84 37.544V0.727998H12.376L27.304 25.88V0.727998H34.6V37.88H27.064ZM61.4451 38.648C60.8051 38.872 60.3571 38.904 60.1011 38.744C59.8451 38.616 59.6691 38.264 59.5731 37.688L59.0931 35.288C58.2291 36.248 57.1891 37.016 55.9731 37.592C54.7891 38.168 53.4291 38.456 51.8931 38.456C50.2931 38.456 48.7891 38.232 47.3811 37.784C46.0051 37.336 44.7891 36.632 43.7331 35.672C42.7091 34.744 41.8931 33.544 41.2851 32.072C40.6771 30.6 40.3731 28.824 40.3731 26.744V21.752C40.3731 19.704 40.6771 17.944 41.2851 16.472C41.8931 14.968 42.7091 13.752 43.7331 12.824C44.7891 11.864 46.0051 11.16 47.3811 10.712C48.7891 10.264 50.2931 10.04 51.8931 10.04C53.3331 10.04 54.6291 10.296 55.7811 10.808C56.9331 11.32 57.9411 12.008 58.8051 12.872V10.52H65.3331V31.88L66.2931 37.016L61.4451 38.648ZM52.8531 32.216C54.3571 32.216 55.5891 31.736 56.5491 30.776C57.5411 29.816 58.0691 28.488 58.1331 26.792V21.992C58.1331 20.2 57.6371 18.808 56.6451 17.816C55.6531 16.792 54.3891 16.28 52.8531 16.28C51.3171 16.28 50.0531 16.712 49.0611 17.576C48.0691 18.408 47.5731 19.72 47.5731 21.512V26.984C47.5731 28.776 48.0691 30.104 49.0611 30.968C50.0531 31.8 51.3171 32.216 52.8531 32.216ZM91.2108 38.648C90.5708 38.872 90.1228 38.904 89.8668 38.744C89.6108 38.616 89.4348 38.264 89.3388 37.688L88.8588 35.288C87.9948 36.248 86.9548 37.016 85.7388 37.592C84.5548 38.168 83.1948 38.456 81.6588 38.456C80.0588 38.456 78.5548 38.232 77.1468 37.784C75.7708 37.336 74.5548 36.632 73.4988 35.672C72.4748 34.744 71.6588 33.544 71.0508 32.072C70.4428 30.6 70.1388 28.824 70.1388 26.744V21.752C70.1388 19.704 70.4428 17.944 71.0508 16.472C71.6588 14.968 72.4748 13.752 73.4988 12.824C74.5548 11.864 75.7708 11.16 77.1468 10.712C78.5548 10.264 80.0588 10.04 81.6588 10.04C83.0988 10.04 84.3948 10.296 85.5468 10.808C86.6988 11.32 87.7068 12.008 88.5708 12.872V10.52H95.0988V31.88L96.0588 37.016L91.2108 38.648ZM82.6188 32.216C84.1228 32.216 85.3548 31.736 86.3148 30.776C87.3068 29.816 87.8348 28.488 87.8988 26.792V21.992C87.8988 20.2 87.4028 18.808 86.4108 17.816C85.4188 16.792 84.1548 16.28 82.6188 16.28C81.0828 16.28 79.8188 16.712 78.8268 17.576C77.8348 18.408 77.3388 19.72 77.3388 21.512V26.984C77.3388 28.776 77.8348 30.104 78.8268 30.968C79.8188 31.8 81.0828 32.216 82.6188 32.216Z" fill="#315F9A"/>
</g>
<defs>
<filter id="filter0_d_7_102" x="0.840027" y="0.727997" width="99.2188" height="46.592" filterUnits="userSpaceOnUse" color-interpolation-filters="sRGB">
<feFlood flood-opacity="0" result="BackgroundImageFix"/>
<feColorMatrix in="SourceAlpha" type="matrix" values="0 0 0 0 0 0 0 0 0 0 0 0 0 0 0 0 0 0 127 0" result="hardAlpha"/>
<feOffset dy="4"/>
<feGaussianBlur stdDeviation="2"/>
<feComposite in2="hardAlpha" operator="out"/>
<feColorMatrix type="matrix" values="0 0 0 0 0 0 0 0 0 0 0 0 0 0 0 0 0 0 0.25 0"/>
<feBlend mode="normal" in2="BackgroundImageFix" result="effect1_dropShadow_7_102"/>
<feBlend mode="normal" in="SourceGraphic" in2="effect1_dropShadow_7_102" result="shape"/>
</filter>
</defs>
</svg>
